<svg 
 xmlns="http://www.w3.org/2000/svg"
 xmlns:xlink="http://www.w3.org/1999/xlink"
 width="16.15px" height="31.15px">
<path fill-rule="evenodd"  stroke="rgb(0, 0, 0)" stroke-width="0.1px" stroke-linecap="butt" stroke-linejoin="miter" fill="rgb(152, 152, 152)"
 d="M12.508,1.939 C12.301,2.423 12.324,3.350 12.223,3.528 C12.049,3.831 11.923,4.200 11.817,5.159 C11.724,5.870 11.980,5.775 11.806,6.181 C11.475,6.959 11.379,7.465 11.369,7.797 C10.590,7.550 9.452,6.472 8.516,6.638 C8.117,6.196 6.923,5.560 6.022,6.290 C5.835,6.459 5.690,6.691 5.642,7.397 C5.576,8.363 4.983,8.150 4.437,9.159 C4.194,9.711 3.814,9.726 3.285,10.518 C3.147,10.739 3.632,11.457 4.220,11.430 C3.883,11.561 3.784,12.599 5.087,12.976 C5.372,13.026 3.718,15.202 4.810,17.260 C4.862,17.350 4.854,17.501 4.497,17.507 C4.497,17.507 2.922,17.606 2.661,18.131 C2.456,18.712 2.813,19.119 2.141,19.221 C0.597,19.459 1.097,19.508 1.128,20.214 C1.138,20.407 1.144,29.311 1.151,30.635 L13.759,30.635 C13.764,29.030 13.769,19.964 13.772,19.802 C13.793,19.073 13.156,19.565 13.124,18.905 C13.160,17.977 13.339,17.827 12.725,17.563 C12.339,17.433 12.489,17.228 12.518,17.176 C13.973,14.828 15.172,12.640 15.564,12.011 C15.824,11.596 15.506,11.154 15.444,10.588 C15.296,9.205 15.149,8.763 15.149,8.197 C15.149,7.632 15.090,7.038 15.159,6.571 C15.219,6.164 15.079,6.181 15.064,6.043 C15.033,5.783 15.172,5.807 15.128,5.690 C14.781,4.912 15.002,4.420 14.856,3.747 C14.942,3.211 14.822,2.863 14.856,2.644 C14.968,2.078 14.717,1.385 14.751,0.997 C14.751,0.711 14.751,0.696 14.681,0.683 C14.517,0.648 12.787,0.406 12.508,1.939 ZM8.031,18.504 C10.214,18.530 10.838,18.476 12.014,18.392 C12.304,18.372 12.668,18.185 12.690,18.504 C12.761,19.538 12.863,19.856 11.842,20.023 C10.646,20.216 6.004,20.244 3.564,19.995 C3.371,19.908 2.992,20.120 3.120,18.762 C3.143,18.407 3.412,18.364 3.700,18.307 C4.118,18.230 5.848,18.476 8.031,18.504 ZM7.391,7.362 C7.296,7.710 7.236,7.727 6.785,7.894 C6.275,8.010 6.382,7.238 6.455,6.988 C6.524,6.752 6.532,6.382 6.680,6.290 C7.148,6.173 7.475,7.058 7.391,7.362 ZM13.694,1.189 C13.683,1.245 13.679,1.274 13.670,1.365 C13.551,2.493 13.839,2.486 14.302,2.699 C14.644,2.858 14.276,3.204 14.474,4.936 C14.574,5.792 14.404,5.586 14.233,5.834 C14.163,6.166 14.734,6.140 14.595,7.023 C14.492,9.814 14.978,9.426 15.011,11.542 C15.079,12.287 13.712,14.206 12.120,17.065 C11.737,17.772 11.962,18.046 10.353,18.116 C8.930,18.151 8.368,17.827 8.169,16.992 C7.987,14.578 7.980,15.332 8.244,13.589 C8.287,13.362 8.236,13.284 8.166,13.168 C7.897,12.728 7.415,12.540 7.684,11.596 C7.886,10.897 7.822,11.042 7.720,10.629 C7.918,10.449 7.764,10.188 7.650,10.078 C7.822,9.855 7.798,9.675 7.798,9.346 C7.832,8.204 7.674,8.504 7.616,8.169 C7.571,7.916 7.816,7.960 7.905,7.488 C7.943,7.285 7.943,7.224 7.909,7.067 C7.876,6.920 7.862,6.808 8.015,6.746 C8.472,6.587 9.219,8.248 9.069,8.972 C8.992,9.354 8.603,9.688 8.862,9.855 C9.209,10.049 8.792,10.408 9.347,11.486 C9.504,11.789 10.004,12.619 10.335,12.907 C10.577,13.129 10.954,13.659 10.908,13.973 C10.880,14.156 11.087,14.319 11.234,14.165 C11.773,13.516 10.472,12.673 10.908,12.204 C11.172,11.915 11.814,12.260 11.928,12.299 C12.168,12.384 12.366,12.351 12.396,12.177 C12.412,11.887 11.283,11.572 11.565,11.278 C12.114,10.707 12.591,11.257 12.847,10.987 C12.956,10.870 12.674,10.933 12.500,9.774 C12.352,8.780 12.638,8.115 12.847,7.812 C13.054,7.508 12.919,7.348 12.811,7.009 C12.725,6.734 12.743,5.877 12.951,5.434 C12.915,5.294 12.915,5.021 12.881,4.578 C12.881,3.570 13.174,3.887 13.054,3.279 C12.840,2.205 13.399,1.291 13.504,1.180 C13.632,1.046 13.735,1.052 13.694,1.189 ZM14.331,1.014 C14.343,1.011 14.382,1.037 14.378,1.056 L14.517,2.258 C14.431,2.450 14.046,2.304 13.999,2.112 C13.917,1.787 13.780,0.974 14.331,1.014 Z"/>
</svg>